<svg width="48" height="48" viewBox="0 0 48 48" fill="none" xmlns="http://www.w3.org/2000/svg">
<g clip-path="url(#clip0)">
<path d="M30.5718 19.1413L31.406 18.3076L32.2397 19.1419L31.4055 19.9756L30.5718 19.1413Z" fill="#BE005A"/>
<path d="M28.9028 17.4728L29.7371 16.6388L30.5711 17.4728L29.7371 18.3068L28.9028 17.4728Z" fill="#BE005A"/>
<path d="M27.2349 15.8054L28.0691 14.9715L28.9031 15.8054L28.0691 16.6394L27.2349 15.8054Z" fill="#BE005A"/>
<path d="M33.9077 22.4775L34.742 21.6435L35.5759 22.4775L34.742 23.3115L33.9077 22.4775Z" fill="#BE005A"/>
<path d="M32.2393 20.8093L33.0732 19.975L33.9075 20.809L33.0735 21.6432L32.2393 20.8093Z" fill="#BE005A"/>
<path d="M25.2581 30.2455C25.0364 30.2453 24.8336 30.1209 24.7331 29.9236L23.6679 27.8346L21.3526 28.2007C21.0989 28.2427 20.8469 28.1154 20.7306 27.8862C20.614 27.6567 20.6595 27.3785 20.8429 27.1982L22.5008 25.5404L21.4393 23.4514C21.3232 23.2236 21.367 22.9472 21.5479 22.7666C21.7284 22.5858 22.0049 22.542 22.2324 22.658L24.3222 23.7198L25.9798 22.0614C26.16 21.8776 26.4385 21.8321 26.6677 21.9488C26.8973 22.0654 27.0245 22.3171 26.9825 22.5708L26.6076 24.8921L28.6971 25.9573C28.9243 26.0737 29.051 26.3231 29.0107 26.5753C28.9704 26.8276 28.7722 27.0251 28.52 27.0649L26.2041 27.4318L25.8407 29.7476C25.8007 29.9999 25.6028 30.1977 25.3506 30.2378C25.32 30.243 25.2889 30.2455 25.2581 30.2455ZM23.9994 26.5929C24.2211 26.5929 24.4241 26.7176 24.5249 26.9151L24.9595 27.7684L25.1095 26.8247C25.1495 26.5725 25.3477 26.3746 25.6002 26.3346L26.5436 26.1843L25.6904 25.7497C25.4626 25.6337 25.3356 25.3846 25.3753 25.1323L25.5251 24.1857L24.8501 24.8628C24.6692 25.043 24.3928 25.0868 24.1653 24.9705L23.3111 24.5359L23.7465 25.3895C23.8623 25.617 23.8185 25.8934 23.638 26.074L22.9604 26.7521L23.9069 26.6024C23.9375 26.5966 23.9683 26.5935 23.9994 26.5929Z" fill="#BE005A"/>
<path d="M41.3423 17.5448L38.4228 14.6253L38.0059 15.0423C37.5601 15.4953 36.9058 15.6744 36.2913 15.5117C35.677 15.3487 35.1973 14.869 35.0346 14.2544C34.8719 13.6402 35.051 12.9856 35.5042 12.5401L35.9212 12.1231L33.0018 9.20425C32.3109 8.51311 31.1904 8.51311 30.4993 9.20425L28.4146 11.2892L27.1637 10.0382C26.4725 9.34708 25.3523 9.34708 24.6612 10.0382L6.658 28.0414C5.96686 28.7326 5.96686 29.8531 6.658 30.5439L9.57747 33.4634L9.99417 33.0464C10.6945 32.3777 11.7966 32.3777 12.4966 33.0464C13.1878 33.7372 13.1878 34.8577 12.4966 35.5486L12.0797 35.9656L14.9991 38.8856C15.69 39.5762 16.8099 39.5762 17.5008 38.8856L19.5857 36.8001L20.8372 38.0511C21.5281 38.7419 22.648 38.7419 23.3391 38.0511L41.3423 20.0467C42.0335 19.3556 42.0335 18.2351 41.3423 17.5442V17.5448ZM16.6662 38.0505C16.5556 38.1614 16.4056 38.2236 16.2492 38.2236C16.0926 38.2236 15.9425 38.1614 15.832 38.0505L13.7058 35.9232C14.4811 34.7538 14.3253 33.2002 13.3332 32.2081C12.3409 31.216 10.7872 31.0605 9.61807 31.836L7.49139 29.7099C7.26101 29.4796 7.26101 29.1063 7.49139 28.876L25.4952 10.8722C25.6058 10.7613 25.7558 10.6991 25.9124 10.6991C26.0691 10.6991 26.2191 10.7613 26.3297 10.8722L27.5807 12.1231L12.4961 27.2083C11.8055 27.8992 11.8055 29.0191 12.4961 29.7099L15.415 32.6294L15.832 32.2124C16.5228 31.5213 17.6433 31.5213 18.3341 32.2124C19.0253 32.9033 19.0253 34.0238 18.3341 34.7146L17.9166 35.1316L18.7511 35.9656L16.6662 38.0505ZM40.5083 19.2133L22.5046 37.2165C22.2742 37.4469 21.9007 37.4469 21.6706 37.2165L19.5439 35.0898C20.3168 33.9204 20.1596 32.3685 19.1681 31.3779C18.1763 30.3893 16.6268 30.2329 15.4573 31.0032L13.33 28.876C13.0997 28.6459 13.0997 28.2724 13.33 28.042L31.3332 10.0382C31.4438 9.92764 31.5941 9.86515 31.7505 9.86515C31.9072 9.86515 32.0572 9.92764 32.1678 10.0382L34.2945 12.1614C33.5201 13.3306 33.6762 14.8831 34.6677 15.8749C35.6592 16.8663 37.2119 17.0227 38.3811 16.2486L40.5089 18.3765C40.739 18.6066 40.739 18.9801 40.5089 19.2104L40.5083 19.2133Z" fill="#BE005A"/>
</g>
<rect x="0.27907" y="0.27907" width="47.4419" height="47.4419" rx="13.1163" stroke="#C9C9C9" stroke-width="0.55814"/>
<defs>
<clipPath id="clip0">
<rect width="35.7209" height="35.7209" fill="white" transform="translate(6.13965 6.13954)"/>
</clipPath>
</defs>
</svg>
