<svg width="36" height="32" viewBox="0 0 36 32" fill="none" xmlns="http://www.w3.org/2000/svg">
<path d="M35.3423 9.54481L32.4228 6.62534L32.0059 7.04232C31.5601 7.4953 30.9058 7.67442 30.2913 7.51172C29.677 7.34873 29.1973 6.86896 29.0346 6.25443C28.8719 5.64018 29.051 4.98562 29.5042 4.54013L29.9212 4.12314L27.0018 1.20425C26.3109 0.513114 25.1904 0.513114 24.4993 1.20425L22.4146 3.28917L21.1637 2.03822C20.4725 1.34708 19.3523 1.34708 18.6612 2.03822L0.658 20.0414C-0.0331353 20.7326 -0.0331353 21.8531 0.658 22.5439L3.57747 25.4634L3.99417 25.0464C4.69452 24.3777 5.79659 24.3777 6.49665 25.0464C7.18778 25.7372 7.18778 26.8577 6.49665 27.5486L6.07967 27.9656L8.99913 30.8856C9.68998 31.5762 10.8099 31.5762 11.5008 30.8856L13.5857 28.8001L14.8372 30.0511C15.5281 30.7419 16.648 30.7419 17.3391 30.0511L35.3423 12.0467C36.0335 11.3556 36.0335 10.2351 35.3423 9.54423V9.54481ZM10.6662 30.0505C10.5556 30.1614 10.4056 30.2236 10.2492 30.2236C10.0926 30.2236 9.94253 30.1614 9.83195 30.0505L7.70585 27.9232C8.48107 26.7538 8.32528 25.2002 7.33321 24.2081C6.34086 23.216 4.78724 23.0605 3.61807 23.836L1.49139 21.7099C1.26101 21.4796 1.26101 21.1063 1.49139 20.876L19.4952 2.87219C19.6058 2.76132 19.7558 2.69912 19.9124 2.69912C20.0691 2.69912 20.2191 2.76132 20.3297 2.87219L21.5807 4.12314L6.49607 19.2083C5.80551 19.8992 5.80551 21.0191 6.49607 21.7099L9.41497 24.6294L9.83195 24.2124C10.5228 23.5213 11.6433 23.5213 12.3341 24.2124C13.0253 24.9033 13.0253 26.0238 12.3341 26.7146L11.9166 27.1316L12.7511 27.9656L10.6662 30.0505ZM34.5083 11.2133L16.5046 29.2165C16.2742 29.4469 15.9007 29.4469 15.6706 29.2165L13.5439 27.0898C14.3168 25.9204 14.1596 24.3685 13.1681 23.3779C12.1763 22.3893 10.6268 22.2329 9.4573 23.0032L7.33004 20.876C7.09967 20.6459 7.09967 20.2724 7.33004 20.042L25.3332 2.03822C25.4438 1.92764 25.5941 1.86515 25.7505 1.86515C25.9072 1.86515 26.0572 1.92764 26.1678 2.03822L28.2945 4.16144C27.5201 5.33061 27.6762 6.88307 28.6677 7.87485C29.6592 8.86634 31.2119 9.02271 32.3811 8.24864L34.5089 10.3765C34.739 10.6066 34.739 10.9801 34.5089 11.2104L34.5083 11.2133Z" fill="#BE005A"/>
</svg>
