<svg width="76" height="55" viewBox="0 0 76 55" fill="none" xmlns="http://www.w3.org/2000/svg">
<path d="M20.8757 31.1928C26.2573 32.8753 31.8628 33.7321 37.5013 33.7341C43.1398 33.7321 48.7454 32.8753 54.127 31.1928C54.5535 31.0601 54.8768 30.71 54.9752 30.2743C55.0736 29.8387 54.932 29.3836 54.6039 29.0806C54.2758 28.7775 53.8109 28.6725 53.3844 28.8052C43.0457 32.0428 31.9644 32.0428 21.6257 28.8052C20.9664 28.6001 20.2657 28.9684 20.0606 29.6277C19.8556 30.287 20.2239 30.9877 20.8832 31.1928H20.8757Z" fill="#BE005A"/>
<path d="M21.0577 23.7337C26.4983 24.5751 31.9957 24.9955 37.5009 24.9913C43.0061 24.9955 48.5035 24.5751 53.944 23.7337C54.3895 23.6697 54.7662 23.371 54.9302 22.9518C55.0942 22.5326 55.0202 22.0576 54.7364 21.7083C54.4526 21.3589 54.0029 21.189 53.559 21.2636C42.9162 22.9012 32.0855 22.9012 21.4428 21.2636C20.7651 21.1662 20.1352 21.632 20.0297 22.3084C19.9243 22.9849 20.3826 23.6203 21.0577 23.7337Z" fill="#BE005A"/>
<path d="M53.2127 37.6243C43.2982 42.4683 31.7035 42.4683 21.789 37.6243C21.3827 37.396 20.8831 37.4128 20.493 37.6678C20.1028 37.9227 19.8869 38.3736 19.9329 38.8373C19.9788 39.3011 20.2789 39.7009 20.7115 39.8744C31.3061 45.0498 43.6956 45.0498 54.2902 39.8744C54.7228 39.7009 55.0229 39.3011 55.0688 38.8373C55.1148 38.3736 54.8989 37.9227 54.5088 37.6678C54.1186 37.4128 53.6191 37.396 53.2127 37.6243Z" fill="#BE005A"/>
<path d="M70.0027 12.4983H63.5224C62.9946 11.0053 61.5858 10.0048 60.0023 9.99819H58.1147C53.4723 9.93757 49.1042 7.78866 46.223 4.14797C44.0885 1.52354 40.8856 0 37.5027 0C34.1198 0 30.9169 1.52354 28.7824 4.14797C25.9005 7.78919 21.5314 9.93814 16.8881 9.99819H15.0006C13.417 10.0048 12.0083 11.0053 11.4804 12.4983H5.00019C2.23866 12.4983 0 14.737 0 17.4985V23.7487C0 30.319 5.88273 36.3655 13.023 37.3505C16.5482 46.9859 25.2392 53.7835 35.4401 54.8837C36.8108 55.0388 38.1946 55.0388 39.5653 54.8837C49.7652 53.7826 58.4551 46.9852 61.9799 37.3505C69.1202 36.3655 75.0029 30.319 75.0029 23.7487V17.4985C75.0029 14.737 72.7642 12.4983 70.0027 12.4983ZM15.0006 12.4983H16.8881C22.2845 12.4381 27.3664 9.94929 30.7224 5.72303C32.3817 3.6814 34.8725 2.49603 37.5033 2.49603C40.1342 2.49603 42.625 3.6814 44.2842 5.72303C47.6389 9.94885 52.7195 12.4377 58.1147 12.4983H60.0023C60.6927 12.4983 61.2524 13.058 61.2524 13.7483V14.9984L57.5022 14.9921H57.4772C51.5315 14.8322 45.9728 12.007 42.3391 7.29809C41.1532 5.84059 39.3734 4.99546 37.4944 4.99765C35.6154 4.99983 33.8375 5.84909 32.655 7.30934C29.0228 12.0116 23.469 14.8316 17.5294 14.9896H17.5007L13.7505 14.9984V13.7483C13.7505 13.058 14.3102 12.4983 15.0006 12.4983ZM2.5001 23.7487V17.4985C2.5001 16.1177 3.61943 14.9984 5.00019 14.9984H11.2504V27.4989C11.2544 29.9135 11.5674 32.3177 12.1817 34.6529C7.21528 33.4566 2.5001 29.2139 2.5001 23.7487ZM39.304 52.3973C38.1061 52.5323 36.8968 52.5323 35.6989 52.3973C26.2007 51.3606 18.1757 44.8885 15.1506 35.8254V35.8129C14.2281 33.1379 13.755 30.3285 13.7505 27.4989V17.4985L17.5007 17.4922C24.2076 17.3615 30.4939 14.1979 34.5951 8.8894C35.3033 8.01289 36.3691 7.50267 37.4959 7.50073C38.6228 7.49879 39.6904 8.00534 40.4016 8.8794C44.5084 14.1704 50.7775 17.3332 57.4735 17.4922H57.5022L61.2524 17.4985V27.4989C61.2488 30.3275 60.777 33.136 59.856 35.8104V35.8229C56.8312 44.8881 48.8042 51.3615 39.304 52.3973ZM72.5028 23.7487C72.5028 29.2139 67.7876 33.4566 62.8212 34.6554C63.4357 32.3194 63.7487 29.9143 63.7524 27.4989V14.9984H70.0027C71.3835 14.9984 72.5028 16.1177 72.5028 17.4985V23.7487Z" fill="#BE005A"/>
</svg>
