<svg width="52" height="52" viewBox="0 0 52 52" fill="none" xmlns="http://www.w3.org/2000/svg">
<path opacity="0.4" d="M35.403 4.3329H16.618C9.27301 4.3329 4.33301 9.48957 4.33301 17.1596V34.8612C4.33301 42.5096 9.27301 47.6662 16.618 47.6662H35.403C42.748 47.6662 47.6663 42.5096 47.6663 34.8612V17.1596C47.6663 9.48957 42.748 4.3329 35.403 4.3329Z" fill="#21E900" fill-opacity="0.35"/>
<path d="M23.4281 33.0371C22.9427 33.0371 22.4574 32.8529 22.0869 32.4824L16.9454 27.3409C16.2044 26.5999 16.2044 25.3996 16.9454 24.6608C17.6864 23.9198 18.8846 23.9176 19.6256 24.6586L23.4281 28.4611L32.3721 19.5171C33.1131 18.7761 34.3112 18.7761 35.0522 19.5171C35.7932 20.2581 35.7932 21.4584 35.0522 22.1994L24.7692 32.4824C24.3987 32.8529 23.9134 33.0371 23.4281 33.0371Z" fill="#21E900"/>
</svg>
